{"title":"WWE.Superstars.11.17.2011.480p.H264.AAC.MM.By.Snaw90","uid":6826585,"size":420023178,"categoryP":"video","categoryS":"hd___tv_shows","magnet":"?xt=urn:btih:9dad6187ac1b51546beeb8d5d0bfc0e8abe55708&amp;dn=WWE.Superstars.11.17.2011.480p.H264.AAC.MM.By.Snaw90&amp;tr=udp%3A%2F%2Ftracker.openbittorrent.com%3A80&amp;tr=udp%3A%2F%2Fopen.demonii.com%3A1337&amp;tr=udp%3A%2F%2Ftracker.coppersurfer.tk%3A6969&amp;tr=udp%3A%2F%2Fexodus.desync.com%3A6969","seeders":0,"leechers":0,"uploader":null,"files":1,"time":1321589494,"description":"General\nComplete name                   : WWE.Superstars.11.17.2011.480p.H264.AAC.MM.By.Snaw90.mp4\nFormat                          : MP4\nDuration                        : 40mn 41s\nOverall bit rate                : 1376 Kbps\n\n\nVideo\n\nFormat                          : AVC\nDuration                        : 40mn 41s\nBit rate                        : 1242 Kbps\nWidth                           : 720 pixels\nHeight                          : 480 pixels\nDisplay aspect ratio            : 3:2\nStandard                        : NTSC\nChroma subsampling              : 4:2:0\nBit depth                       : 8 bits\nBits/(Pixel*Frame)              : 0.120\nStream size                     : 361 MiB (90%)\nLanguage                        : English\n\nAudio\n\nFormat                          : AAC\nDuration                        : 40mn 41s\nBit rate                        : 128 Kbps\nChannel(s)                      : 2 channels\nStream size                     : 37.2 MiB (9%)\nLanguage                        : English\n\n","torrent":{"xt":"urn:btih:9dad6187ac1b51546beeb8d5d0bfc0e8abe55708","amp;dn":"WWE.Superstars.11.17.2011.480p.H264.AAC.MM.By.Snaw90","amp;tr":["udp%3A%2F%2Ftracker.openbittorrent.com%3A80","udp%3A%2F%2Fopen.demonii.com%3A1337","udp%3A%2F%2Ftracker.coppersurfer.tk%3A6969","udp%3A%2F%2Fexodus.desync.com%3A6969"],"infoHash":"9dad6187ac1b51546beeb8d5d0bfc0e8abe55708","infoHashBuffer":{"type":"Buffer","data":[157,173,97,135,172,27,81,84,107,238,184,213,208,191,192,232,171,229,87,8]},"announce":[],"urlList":[]}}